<svg xmlns="http://www.w3.org/2000/svg" viewBox="0 0 200 200">
  <defs>
    <radialGradient id="goldGrad9001" cx="50%" cy="50%" r="50%">
      <stop offset="0%" stop-color="#f5d060"/>
      <stop offset="60%" stop-color="#d4a017"/>
      <stop offset="100%" stop-color="#a67800"/>
    </radialGradient>
    <radialGradient id="darkCenter9001" cx="50%" cy="50%" r="50%">
      <stop offset="0%" stop-color="#1a1000"/>
      <stop offset="100%" stop-color="#0d0800"/>
    </radialGradient>
  </defs>

  <!-- Outer starburst ring (gold) -->
  <polygon points="100.0,2.0 107.8,11.3 117.0,3.5 123.0,14.0 133.5,7.9 137.6,19.3 149.0,15.1 151.0,27.1 163.0,24.9 162.9,37.1 175.1,37.0 172.9,49.0 184.9,51.0 180.7,62.4 192.1,66.5 186.0,77.0 196.5,83.0 188.7,92.2 198.0,100.0 188.7,107.8 196.5,117.0 186.0,123.0 192.1,133.5 180.7,137.6 184.9,149.0 172.9,151.0 175.1,163.0 162.9,162.9 163.0,175.1 151.0,172.9 149.0,184.9 137.6,180.7 133.5,192.1 123.0,186.0 117.0,196.5 107.8,188.7 100.0,198.0 92.2,188.7 83.0,196.5 77.0,186.0 66.5,192.1 62.4,180.7 51.0,184.9 49.0,172.9 37.0,175.1 37.1,162.9 24.9,163.0 27.1,151.0 15.1,149.0 19.3,137.6 7.9,133.5 14.0,123.0 3.5,117.0 11.3,107.8 2.0,100.0 11.3,92.2 3.5,83.0 14.0,77.0 7.9,66.5 19.3,62.4 15.1,51.0 27.1,49.0 24.9,37.0 37.1,37.1 37.0,24.9 49.0,27.1 51.0,15.1 62.4,19.3 66.5,7.9 77.0,14.0 83.0,3.5 92.2,11.3"
    fill="url(#goldGrad9001)"/>

  <!-- Gold inner ring -->
  <circle cx="100" cy="100" r="84" fill="url(#goldGrad9001)"/>

  <!-- Dark center -->
  <circle cx="100" cy="100" r="78" fill="url(#darkCenter9001)"/>

  <!-- Thin gold inner border -->
  <circle cx="100" cy="100" r="78" fill="none" stroke="#d4a017" stroke-width="1.5"/>
  <circle cx="100" cy="100" r="74" fill="none" stroke="#d4a017" stroke-width="0.5" stroke-dasharray="3 2"/>

  <!-- Top arc: "CERTIFIED" -->
  <path id="topArc9001" d="M 30,100 A 70,70 0 0,1 170,100" fill="none"/>
  <text font-family="Arial Black,Arial,sans-serif" font-size="12" font-weight="900" fill="#d4a017" letter-spacing="3">
    <textPath href="#topArc9001" startOffset="12%">CERTIFIED</textPath>
  </text>

  <!-- "ISO" large -->
  <text x="100" y="103" font-family="Arial Black,Arial,sans-serif" font-size="32" font-weight="900"
    fill="#d4a017" text-anchor="middle" letter-spacing="4">ISO</text>

  <!-- "9001" -->
  <text x="100" y="132" font-family="Arial Black,Arial,sans-serif" font-size="26" font-weight="900"
    fill="#ffffff" text-anchor="middle" letter-spacing="2">9001</text>

  <!-- Bottom arc: "CERTIFIED" -->
  <path id="botArc9001" d="M 30,100 A 70,70 0 0,0 170,100" fill="none"/>
  <text font-family="Arial Black,Arial,sans-serif" font-size="12" font-weight="900" fill="#d4a017" letter-spacing="3">
    <textPath href="#botArc9001" startOffset="12%">CERTIFIED</textPath>
  </text>
</svg>
